<svg width="24" height="25" viewBox="0 0 24 25" fill="none" xmlns="http://www.w3.org/2000/svg">
<g clip-path="url(#clip0_913_3608)">
<path d="M12.0009 4.25474C9.41294 4.25474 7.30747 6.36021 7.30747 8.94816C7.30747 11.5361 9.41294 13.6416 12.0009 13.6416C14.5889 13.6416 16.6943 11.5361 16.6943 8.94816C16.6943 6.36021 14.5889 4.25474 12.0009 4.25474ZM12.0009 11.7642C10.4481 11.7642 9.18484 10.5009 9.18484 8.94816C9.18484 7.39539 10.4481 6.13211 12.0009 6.13211C13.5537 6.13211 14.8169 7.39539 14.8169 8.94816C14.8169 10.5009 13.5537 11.7642 12.0009 11.7642ZM12.0009 0.5C7.34258 0.5 3.55273 4.28984 3.55273 8.94816C3.55273 10.6604 4.06239 12.3094 5.02661 13.7171L5.03182 13.7136L12.0009 24.5L18.97 13.7136L18.9751 13.7171C19.9394 12.3094 20.4491 10.6603 20.4491 8.94811C20.4491 4.28984 16.6592 0.5 12.0009 0.5ZM17.7033 12.2146L12.0009 21.0406L6.29853 12.2147C5.72921 11.2238 5.4301 10.1048 5.4301 8.94816C5.4301 5.32503 8.37776 2.37737 12.0009 2.37737C15.624 2.37737 18.5717 5.32503 18.5717 8.94816C18.5717 10.1048 18.2726 11.2238 17.7033 12.2146Z" fill="url(#paint0_linear_913_3608)"/>
</g>
<defs>
<linearGradient id="paint0_linear_913_3608" x1="12.0009" y1="24.5" x2="12.0009" y2="0.5" gradientUnits="userSpaceOnUse">
<stop stop-color="#009EFD"/>
<stop offset="1" stop-color="#2AF598"/>
</linearGradient>
<clipPath id="clip0_913_3608">
<rect width="24" height="24" fill="white" transform="translate(0 0.5)"/>
</clipPath>
</defs>
</svg>
